# xmcd
#
# Track frame offsets:
#	150
#	22897
#	42242
#	53360
#
# Disc length: 1079 seconds
#
# Revision: 1
# Processed by: cddbd v1.5PL3 Copyright (c) Steve Scherf et al.
# Submitted via: CDex 1.50Beta5
#
DISCID=21043504
DTITLE=小島麻由美 - 愛しのキッズ
DYEAR=2002
DGENRE=Pop
TTITLE0=愛しのキッズ
TTITLE1=恋はサイケデリック
TTITLE2=あなたのかけら
TTITLE3=エレクトラ(ライブ)2002年6月16日Shibuya-Ax
EXTD=
EXTT0=
EXTT1=
EXTT2=
EXTT3=
PLAYORDER=
